<svg data-v-fde0c5aa="" xmlns="http://www.w3.org/2000/svg" viewBox="0 0 300 300" className="iconAbove"><!----><defs data-v-fde0c5aa=""><!----></defs><rect data-v-fde0c5aa="" fill="transparent" x="0" y="0" width="300px" height="300px" className="logo-background-square"></rect><defs data-v-fde0c5aa=""><!----></defs><g data-v-fde0c5aa="" id="c7da8f1c-9e1f-4283-ab71-22796034792f" fill="#000000" transform="matrix(6.504878520965576,0,0,6.504878520965576,18.63397556597956,175.81510951721603)"><path d="M0.21 3.47L1.89 8.86L3.92 8.86L4.89 5.96L5.95 8.86L7.98 8.86L9.52 3.47L7.49 3.47L6.83 7.07L5.67 3.47L4.06 3.47L2.98 7.07L2.24 3.47L0.21 3.47ZM12.04 6.17L12.04 6.17L12.04 6.17Q12.04 5.67 12.29 5.31L12.29 5.31L12.29 5.31Q12.54 4.94 13.05 4.94L13.05 4.94L13.05 4.94Q13.55 4.94 13.80 5.31L13.80 5.31L13.80 5.31Q14.06 5.67 14.06 6.17L14.06 6.17L14.06 6.17Q14.06 6.68 13.80 7.04L13.80 7.04L13.80 7.04Q13.55 7.39 13.05 7.39L13.05 7.39L13.05 7.39Q12.54 7.39 12.29 7.04L12.29 7.04L12.29 7.04Q12.04 6.68 12.04 6.17ZM10.22 6.17L10.22 6.17L10.22 6.17Q10.22 7.00 10.58 7.64L10.58 7.64L10.58 7.64Q10.95 8.27 11.59 8.64L11.59 8.64L11.59 8.64Q12.22 9.00 13.05 9.00L13.05 9.00L13.05 9.00Q13.87 9.00 14.51 8.67L14.51 8.67L14.51 8.67Q15.15 8.33 15.51 7.69L15.51 7.69L15.51 7.69Q15.88 7.06 15.88 6.17L15.88 6.17L15.88 6.17Q15.88 5.29 15.51 4.66L15.51 4.66L15.51 4.66Q15.15 4.02 14.51 3.68L14.51 3.68L14.51 3.68Q13.87 3.33 13.05 3.33L13.05 3.33L13.05 3.33Q12.22 3.33 11.59 3.68L11.59 3.68L11.59 3.68Q10.95 4.02 10.58 4.66L10.58 4.66L10.58 4.66Q10.22 5.29 10.22 6.17ZM16.93 1.44L16.93 8.86L18.82 8.86L18.82 1.44L16.93 1.44ZM22.37 7.29L22.37 7.29L22.37 7.29Q22.37 7.52 22.19 7.60L22.19 7.60L22.19 7.60Q22.01 7.67 21.71 7.67L21.71 7.67L21.71 7.67Q21.53 7.67 21.08 7.50L21.08 7.50L21.08 7.50Q20.64 7.34 20.22 6.94L20.22 6.94L19.66 8.20L19.66 8.20Q20.19 8.69 20.74 8.88L20.74 8.88L20.74 8.88Q21.29 9.07 21.99 9.07L21.99 9.07L21.99 9.07Q22.54 9.07 23.06 8.88L23.06 8.88L23.06 8.88Q23.58 8.68 23.92 8.26L23.92 8.26L23.92 8.26Q24.26 7.84 24.26 7.15L24.26 7.15L24.26 7.15Q24.26 6.72 24.02 6.43L24.02 6.43L24.02 6.43Q23.79 6.15 23.44 5.96L23.44 5.96L23.44 5.96Q23.09 5.77 22.74 5.62L22.74 5.62L22.74 5.62Q22.39 5.47 22.15 5.33L22.15 5.33L22.15 5.33Q21.91 5.18 21.91 4.97L21.91 4.97L21.91 4.97Q21.91 4.66 22.30 4.66L22.30 4.66L22.30 4.66Q22.48 4.66 22.79 4.82L22.79 4.82L22.79 4.82Q23.09 4.98 23.51 5.39L23.51 5.39L24.07 4.13L24.07 4.13Q23.55 3.64 23.04 3.45L23.04 3.45L23.04 3.45Q22.54 3.26 22.15 3.26L22.15 3.26L22.15 3.26Q21.62 3.26 21.13 3.41L21.13 3.41L21.13 3.41Q20.64 3.56 20.33 3.92L20.33 3.92L20.33 3.92Q20.02 4.28 20.02 4.97L20.02 4.97L20.02 4.97Q20.02 5.47 20.26 5.80L20.26 5.80L20.26 5.80Q20.50 6.12 20.85 6.31L20.85 6.31L20.85 6.31Q21.20 6.51 21.55 6.66L21.55 6.66L21.55 6.66Q21.90 6.80 22.13 6.94L22.13 6.94L22.13 6.94Q22.37 7.08 22.37 7.29ZM26.92 6.17L26.92 6.17L26.92 6.17Q26.92 5.67 27.17 5.31L27.17 5.31L27.17 5.31Q27.43 4.94 27.93 4.94L27.93 4.94L27.93 4.94Q28.43 4.94 28.69 5.31L28.69 5.31L28.69 5.31Q28.94 5.67 28.94 6.17L28.94 6.17L28.94 6.17Q28.94 6.68 28.69 7.04L28.69 7.04L28.69 7.04Q28.43 7.39 27.93 7.39L27.93 7.39L27.93 7.39Q27.43 7.39 27.17 7.04L27.17 7.04L27.17 7.04Q26.92 6.68 26.92 6.17ZM25.10 6.17L25.10 6.17L25.10 6.17Q25.10 7.00 25.47 7.64L25.47 7.64L25.47 7.64Q25.83 8.27 26.47 8.64L26.47 8.64L26.47 8.64Q27.10 9.00 27.93 9.00L27.93 9.00L27.93 9.00Q28.76 9.00 29.39 8.67L29.39 8.67L29.39 8.67Q30.03 8.33 30.39 7.69L30.39 7.69L30.39 7.69Q30.76 7.06 30.76 6.17L30.76 6.17L30.76 6.17Q30.76 5.29 30.39 4.66L30.39 4.66L30.39 4.66Q30.03 4.02 29.39 3.68L29.39 3.68L29.39 3.68Q28.76 3.33 27.93 3.33L27.93 3.33L27.93 3.33Q27.10 3.33 26.47 3.68L26.47 3.68L26.47 3.68Q25.83 4.02 25.47 4.66L25.47 4.66L25.47 4.66Q25.10 5.29 25.10 6.17ZM32.14 8.86L34.03 8.86L34.03 4.87L35.24 4.87L35.24 3.47L34.06 3.47L34.06 3.47Q34.12 3.09 34.29 2.97L34.29 2.97L34.29 2.97Q34.45 2.84 34.69 2.84L34.69 2.84L34.69 2.84Q34.89 2.84 35.19 3.00L35.19 3.00L35.19 3.00Q35.49 3.16 35.91 3.57L35.91 3.57L36.47 2.17L36.47 2.17Q36.12 1.85 35.83 1.65L35.83 1.65L35.83 1.65Q35.55 1.46 35.22 1.38L35.22 1.38L35.22 1.38Q34.89 1.30 34.41 1.30L34.41 1.30L34.41 1.30Q33.88 1.30 33.36 1.55L33.36 1.55L33.36 1.55Q32.83 1.81 32.49 2.28L32.49 2.28L32.49 2.28Q32.14 2.74 32.14 3.43L32.14 3.43L32.14 3.47L31.53 3.47L31.53 4.87L32.14 4.87L32.14 8.86ZM36.19 3.47L36.19 4.87L37.17 4.87L37.17 8.86L39.06 8.86L39.06 4.87L40.18 4.87L40.18 3.47L39.06 3.47L39.06 1.72L37.17 2.56L37.17 3.47L36.19 3.47Z"></path></g><defs data-v-fde0c5aa=""><linearGradient data-v-fde0c5aa="" gradientTransform="rotate(25)" id="3ed2af18-21bf-4bcc-b5b1-362996e7cc93" x1="0%" y1="0%" x2="100%" y2="0%"><stop data-v-fde0c5aa="" offset="0%" stop-color="#01648B" stop-opacity="1"></stop><stop data-v-fde0c5aa="" offset="100%" stop-color="#5BD0A4" stop-opacity="1"></stop></linearGradient></defs><g data-v-fde0c5aa="" id="ccbe0eb2-99b8-4333-ab84-af37026dfd21" stroke="none" fill="url(#3ed2af18-21bf-4bcc-b5b1-362996e7cc93)" transform="matrix(1.9898780584335327,0,0,1.9898780584335327,60.455486509806576,65.18564638358693)"><path clip-rule="evenodd" d="M80 2.3C80 1 78.9 0 77.6 0H12.3C11 0 10 1 10 2.3v44.3h70V2.3zM44.6.8c.7 0 1.2.6 1.2 1.3 0 .7-.6 1.3-1.2 1.3-.7 0-1.2-.6-1.2-1.3-.1-.7.5-1.3 1.2-1.3zm31.2 41.7H14.2V4.2h61.6v38.3zm-23.8 5c-.1.6-.5.8-1.1.8H39.1c-.6 0-1-.2-1.1-.8H0v1.6c0 .9 6.3 1.7 14 1.7h62c7.7 0 14-.8 14-1.7v-1.6H52zm8.8-25.3l-11.6-4.9v3.2l8 3.1-8 3.1v3.2L60.8 25v-2.8zM43.2 32c.3 0 .5-.1.7-.2.2-.1.3-.3.4-.6.1-.2.2-.6.3-1l3.1-12.9c.2-.6.2-1 .2-1.3 0-.3-.1-.6-.3-.7-.2-.3-.5-.3-.8-.3-.4 0-.7.1-.9.4-.1.3-.3.7-.5 1.4l-3.1 12.9c-.1.7-.2 1.1-.2 1.3 0 .6.3 1 1.1 1zm-2.4-5.4l-8-3.1 8-3v-3.2l-11.7 4.9v2.7l11.7 4.9v-3.2z"></path></g><!----></svg>